<svg xmlns="http://www.w3.org/2000/svg" width="256" height="256" viewBox="0 0 100 100"><rect width="100" height="100" rx="20" fill="#2bc4ad"></rect><path fill="#fff" d="M65.96 78.98L65.96 78.98Q68 78.98 71.60 74Q75.20 69.02 78.74 61.16Q82.28 53.30 83.06 53.30Q83.84 53.30 83.84 54.26L83.84 54.26Q83.84 57.62 80.36 64.94L80.36 64.94Q70.88 85.10 64.52 85.10L64.52 85.10Q59 85.10 56.72 83.30L56.72 83.30Q55.76 82.34 55.76 78.62Q55.76 74.90 56.36 67.10L56.36 67.10Q51.80 74.90 46.70 80Q41.60 85.10 36.62 85.10Q31.64 85.10 28.52 79.76Q25.40 74.42 25.40 65.36Q25.40 56.30 27.20 42.68Q29.00 29.06 29.00 22.46L29.00 22.46Q29.00 20.78 28.16 20.78L28.16 20.78Q26.24 20.78 23.78 23.60Q21.32 26.42 20.48 32.30L20.48 32.30Q20.36 33.62 19.46 34.64Q18.56 35.66 17.60 35.66L17.60 35.66Q16.16 35.66 16.16 33.26Q16.16 30.86 18.56 26.48Q20.96 22.10 24.86 18.50Q28.76 14.90 32.48 14.90L32.48 14.90Q36.80 14.90 36.74 21.80Q36.68 28.70 35.24 41.90Q33.80 55.10 33.80 61.70L33.80 61.70Q33.80 78.50 40.04 78.50L40.04 78.50Q43.64 78.50 48.44 72.74Q53.24 66.98 56.96 59.30L56.96 59.30Q59.36 28.58 60.44 21.26L60.44 21.26Q60.68 20.18 64.16 17.54Q67.64 14.90 69.50 14.90Q71.36 14.90 71.36 21.86L71.36 21.86Q71.36 27.14 70.52 30.98Q69.68 34.82 68.42 39.98Q67.16 45.14 66.56 47.66L66.56 47.66Q65.36 63.74 65.36 75.74L65.36 75.74Q65.36 78.98 65.96 78.98Z"></path></svg>